HIERARCHY
ROOT Hips
{
	OFFSET 0.000000 0.000000 0.000000
	CHANNELS 6 Xposition Yposition Zposition Zrotation Yrotation Xrotation 
	JOINT LHipJoint
	{
		OFFSET 0.000000 0.000000 0.000000
		CHANNELS 3 Zrotation Yrotation Xrotation
		JOINT LeftUpLeg
		{
			OFFSET 1.363060 -1.794630 0.839290
			CHANNELS 3 Zrotation Yrotation Xrotation
			JOINT LeftLeg
			{
				OFFSET 2.448110 -6.726130 0.000000
				CHANNELS 3 Zrotation Yrotation Xrotation
				JOINT LeftFoot
				{
					OFFSET 2.562200 -7.039590 0.000000
					CHANNELS 3 Zrotation Yrotation Xrotation
					JOINT LeftToeBase
					{
						OFFSET 0.157640 -0.433110 2.322550
						CHANNELS 3 Zrotation Yrotation Xrotation
						End Site
						{
							OFFSET 0.000000 0.000000 0.000000
						}
					}
				}
			}
		}
	}
	JOINT RHipJoint
	{
		OFFSET 0.000000 0.000000 0.000000
		CHANNELS 3 Zrotation Yrotation Xrotation
		JOINT RightUpLeg
		{
			OFFSET -1.305520 -1.794630 0.839290
			CHANNELS 3 Zrotation Yrotation Xrotation
			JOINT RightLeg
			{
				OFFSET -2.542530 -6.985550 0.000000
				CHANNELS 3 Zrotation Yrotation Xrotation
				JOINT RightFoot
				{
					OFFSET -2.568260 -7.056230 0.000000
					CHANNELS 3 Zrotation Yrotation Xrotation
					JOINT RightToeBase
					{
						OFFSET -0.164730 -0.452590 2.363150
						CHANNELS 3 Zrotation Yrotation Xrotation
						End Site
						{
							OFFSET 0.000000 0.000000 0.000000
						}
					}
				}
			}
		}
	}
}
MOTION
Frames: 33
Frame Time: 0.008333
4.419672 17.165829 0.133364 11.837333 86.389652 10.768217 -10.358567 1.378219 1.906256 -13.302066 4.216375 -19.267848 -1.779195 0.303267 21.429884 1.952878 11.222758 -9.114474 -0.307800 0.000000 -18.503600 10.963231 -3.130542 -2.186859 -3.169818 -13.268406 -3.119137 -1.108274 -3.908965 55.742178 -3.241324 -18.902045 -2.317927 -2.024300 -0.000000 -39.729100
4.633956 17.038761 0.126857 13.805843 86.678131 13.032201 -10.346089 1.385782 1.766719 -13.619250 4.456794 -20.426699 -1.811619 0.493451 24.467811 1.926182 10.607156 -10.696905 -0.646100 -0.000000 -17.649300 11.062118 -3.048058 -2.175330 -3.579960 -13.477105 -4.960458 -1.107046 -4.004000 57.733161 -3.076980 -17.853934 -4.026452 -1.365100 -0.000000 -39.724600
4.845087 16.906876 0.123286 17.111174 87.062456 16.664391 -10.322685 1.379744 1.632346 -13.969168 4.573697 -21.719259 -1.834024 0.702775 27.820813 1.923390 10.079012 -12.515678 -1.003700 -0.000000 -16.785200 11.165831 -2.950933 -2.174656 -3.989354 -13.742724 -6.832944 -1.096159 -4.099381 59.599456 -2.922707 -16.855020 -5.759765 -0.769500 -0.000000 -39.503400
5.052780 16.772697 0.122017 22.376505 87.550003 22.275712 -10.283224 1.356824 1.510893 -14.325595 4.505136 -23.048201 -1.837135 0.922934 31.361823 1.950343 9.692779 -14.493483 -1.374300 -0.000000 -15.992400 11.279786 -2.838243 -2.193158 -4.387372 -14.075230 -8.708046 -1.074500 -4.198867 61.326673 -2.792699 -15.986264 -7.527079 -0.233000 0.000000 -38.921600
5.256936 16.639136 0.122433 30.977816 88.129688 31.226862 -10.209343 1.319509 1.403894 -14.663425 4.230963 -24.315784 -1.816707 1.143212 34.950062 2.009276 9.476031 -16.551907 -1.759000 -0.000000 -15.353000 11.423404 -2.707044 -2.232723 -4.763255 -14.468795 -10.557973 -1.042858 -4.304680 62.898330 -2.697437 -15.307457 -9.314444 0.253700 0.000000 -37.915700
5.457634 16.509325 0.123906 45.571385 88.737416 46.159729 -10.061637 1.299511 1.309270 -14.959172 3.779100 -25.447628 -1.779902 1.361740 38.446232 2.100194 9.432794 -18.625864 -2.162800 -0.000000 -14.932000 11.636255 -2.528842 -2.288281 -5.101469 -14.891108 -12.359076 -1.008936 -4.405299 64.301172 -2.642818 -14.851412 -11.089422 0.702300 0.000000 -36.502900
5.655203 16.386400 0.125931 68.989356 89.167305 69.897074 -9.847653 1.378142 1.231314 -15.211664 3.231142 -26.414063 -1.753274 1.606431 41.703733 2.220359 9.559706 -20.665418 -2.589401 -0.000000 -14.768100 11.906855 -2.220674 -2.357064 -5.406936 -15.261867 -14.090785 -0.993504 -4.456205 65.539153 -2.630475 -14.620441 -12.808226 1.123800 -0.000000 -34.765100
5.850238 16.273353 0.128045 96.754171 89.179700 97.963780 -9.736505 1.538484 1.180220 -15.475733 2.646537 -27.185841 -1.746888 1.883727 44.595013 2.358256 9.835901 -22.620947 -3.037900 -0.000000 -14.870100 12.061590 -1.791209 -2.444321 -5.741000 -15.537316 -15.753750 -0.996264 -4.448073 66.608882 -2.658123 -14.591110 -14.420054 1.525100 -0.000000 -32.827800
6.043473 16.172696 0.129943 117.875454 88.829267 119.368741 -9.778046 1.639363 1.143216 -15.754094 2.024263 -27.692188 -1.730925 2.126565 47.077698 2.501084 10.198321 -24.446597 -3.501600 0.000000 -15.221600 12.053773 -1.396941 -2.535014 -6.097247 -15.766878 -17.359870 -0.984109 -4.450875 67.459875 -2.718526 -14.730011 -15.872392 1.906500 -0.000000 -30.837299
6.235944 16.086513 0.131425 130.482437 88.317615 132.237657 -9.864319 1.666008 1.104650 -16.000797 1.409723 -27.911576 -1.703218 2.306835 49.128895 2.643327 10.591041 -26.118643 -3.967800 -0.000000 -15.782800 11.991495 -1.075801 -2.604235 -6.412814 -15.940859 -18.910111 -0.952259 -4.479494 68.059010 -2.801110 -14.988084 -17.126507 2.261400 0.000000 -28.939800
6.428698 16.016251 0.132556 137.741849 87.784776 139.738416 -9.945953 1.659361 1.060374 -16.195894 0.868195 -27.861654 -1.678688 2.432320 50.718088 2.779706 10.974305 -27.621065 -4.419100 -0.000001 -16.497200 11.921500 -0.801237 -2.636720 -6.655103 -16.015419 -20.403084 -0.908942 -4.513188 68.397368 -2.894231 -15.303427 -18.159882 2.577400 -0.000001 -27.265700
6.622886 15.962814 0.133540 141.973610 87.303323 144.194034 -10.016574 1.644261 1.010200 -16.334577 0.447845 -27.564846 -1.667588 2.510713 51.828047 2.903668 11.311493 -28.938547 -4.834700 0.000000 -17.297900 11.848228 -0.559196 -2.623942 -6.810852 -15.963180 -21.837602 -0.857648 -4.536710 68.469526 -2.986398 -15.612713 -18.964701 2.840400 0.000001 -25.916900
6.819606 15.926544 0.134746 144.391812 86.908480 146.820810 -10.078120 1.632920 0.954944 -16.415494 0.178991 -27.041484 -1.674970 2.546353 52.457568 3.008752 11.569670 -30.056990 -5.193199 0.000000 -18.116200 11.768768 -0.346694 -2.561932 -6.874457 -15.776601 -23.209024 -0.798203 -4.541628 68.271040 -3.067328 -15.858299 -19.546928 3.037300 -0.000000 -24.960100
7.019837 15.907257 0.136747 145.617372 86.614366 148.240482 -10.131976 1.632361 0.896363 -16.438230 0.075404 -26.309999 -1.702623 2.542465 52.617654 3.089425 11.722436 -30.964134 -5.474800 0.000000 -18.893699 11.681395 -0.163478 -2.451141 -6.845272 -15.464196 -24.508585 -0.729184 -4.523159 67.799592 -3.129278 -15.995779 -19.922634 3.159800 -0.000000 -24.426100
7.224347 15.904466 0.140115 145.998123 86.420424 148.798732 -10.178662 1.647388 0.837079 -16.403070 0.137402 -25.383994 -1.749964 2.502303 52.328829 3.141406 11.752283 -31.649126 -5.663600 0.000000 -19.590100 11.585952 -0.009144 -2.296213 -6.727921 -15.047991 -25.721679 -0.649014 -4.478818 67.055757 -3.167433 -15.996788 -20.114925 3.205800 0.000000 -24.303701
7.433659 15.917357 0.145472 145.767925 86.315334 148.725535 -10.217975 1.681109 0.780294 -16.309678 0.352750 -24.273890 -1.814627 2.429433 51.617979 3.161883 11.651685 -32.102645 -5.749601 -0.000000 -20.190200 11.483516 0.118173 -2.105706 -6.529621 -14.560177 -26.830116 -0.556594 -4.407814 66.042865 -3.180606 -15.853591 -20.150184 3.180300 -0.000001 -24.541500
7.648049 15.944971 0.153315 145.135309 86.280316 148.224681 -10.249497 1.735050 0.729398 -16.156823 0.699327 -22.986547 -1.892688 2.327666 50.516184 3.149585 11.424005 -32.315552 -5.729401 0.000000 -20.707000 11.375873 0.221410 -1.891223 -6.258503 -14.040166 -27.813537 -0.451408 -4.310813 64.766856 -3.170845 -15.577413 -20.055788 3.094000 0.000000 -25.053500
7.867631 15.986282 0.163968 144.340885 86.292195 147.531522 -10.272909 1.809008 0.687806 -15.941943 1.147789 -21.526597 -1.979087 2.200852 49.057216 3.104609 11.081244 -32.280143 -5.606000 -0.000000 -21.177800 11.265124 0.303821 -1.665972 -5.921433 -13.530543 -28.651569 -0.333554 -4.189613 63.236207 -3.143379 -15.198052 -19.859668 2.962800 -0.000000 -25.730400
8.092307 16.040307 0.177633 143.680916 86.326822 146.936700 -10.288260 1.901198 0.658439 -15.660369 1.665871 -19.897673 -2.067691 2.052820 47.276061 3.028087 10.643074 -31.986660 -5.387900 0.000000 -21.668800 11.153424 0.368215 -1.443288 -5.522324 -13.072420 -29.325211 -0.203677 -4.046683 61.460934 -3.105717 -14.758712 -19.588102 2.804000 -0.000000 -26.463700
8.321773 16.106021 0.194327 143.481993 86.362976 146.760069 -10.295881 2.008989 0.643155 -15.306848 2.222746 -18.103631 -2.151863 1.887695 45.208523 2.921899 10.133420 -31.424426 -5.086800 0.000000 -22.256100 11.043054 0.416844 -1.235519 -5.063700 -12.701760 -29.816790 -0.063015 -3.884671 59.453661 -3.066597 -14.309746 -19.265741 2.634800 -0.000000 -27.164601
8.555598 16.182173 0.214078 144.011033 86.379838 147.261723 -10.295009 2.130559 0.644295 -14.882215 2.783654 -16.148633 -2.224848 1.710479 42.889546 2.789239 9.583273 -30.579124 -4.718100 0.000000 -23.068299 10.937233 0.453054 -1.052416 -4.553355 -12.446735 -30.110864 0.086602 -3.705323 57.227097 -3.035048 -13.901470 -18.918818 2.470700 -0.000001 -27.786300
8.793187 16.267960 0.236524 145.515065 86.369453 148.682857 -10.287575 2.264002 0.660498 -14.376287 3.333007 -14.046325 -2.280304 1.527303 40.358592 2.631908 9.015093 -29.433265 -4.293800 0.000000 -24.193300 10.837333 0.478297 -0.901234 -3.985500 -12.319471 -30.196918 0.242831 -3.509272 54.794390 -3.019465 -13.580729 -18.565300 2.322500 -0.000000 -28.312999
9.033949 16.362233 0.261451 148.001605 86.323855 151.027550 -10.274588 2.410221 0.691251 -13.790266 3.852922 -11.815761 -2.313049 1.346127 37.655497 2.453106 8.456213 -27.964354 -3.826700 0.000001 -25.765600 10.745272 0.496412 -0.785654 -3.364469 -12.321272 -30.067829 0.402311 -3.295213 52.167569 -3.026400 -13.381860 -18.222568 2.197201 -0.000000 -28.764900
9.277247 16.463890 0.288576 151.306881 86.240376 154.132089 -10.259482 2.571536 0.734902 -13.126667 4.335055 -9.487254 -2.319246 1.176334 34.826781 2.256053 7.928932 -26.147063 -3.326700 -0.000000 -27.911700 10.660820 0.510875 -0.705872 -2.693534 -12.439848 -29.722824 0.560891 -3.060424 49.356836 -3.060247 -13.326300 -17.901358 2.097400 0.000000 -29.177700
9.522450 16.571789 0.317716 155.129685 86.117865 157.700078 -10.248133 2.750851 0.789685 -12.392938 4.776598 -7.104456 -2.296376 1.027880 31.928905 2.045008 7.451726 -23.957513 -2.802100 0.000001 -30.741700 10.581271 0.523810 -0.658281 -1.978045 -12.652892 -29.168871 0.713888 -2.801757 46.370559 -3.122912 -13.421632 -17.604570 2.021600 0.000000 -29.589500
9.769037 16.684735 0.348740 159.122727 85.955856 161.393981 -10.247984 2.950289 0.853672 -11.601219 5.179137 -4.722965 -2.242992 0.910102 29.029915 1.825636 7.037262 -21.376684 -2.259900 0.000000 -34.342299 10.501962 0.534391 -0.635363 -1.226173 -12.930112 -28.418997 0.856738 -2.516900 43.214290 -3.213607 -13.662529 -17.324694 1.964300 0.000000 -30.029700
10.016510 16.801485 0.381773 162.970573 85.753462 164.912524 -10.265468 3.170184 0.924079 -10.766447 5.550730 -2.410770 -2.159335 0.830743 26.213472 1.605374 6.688826 -18.402719 -1.707300 0.000000 -38.704700 10.418352 0.539031 -0.625808 -0.448060 -13.235805 -27.493960 0.985437 -2.205358 39.893303 -3.329457 -14.035475 -17.044472 1.916300 0.000001 -30.510100
10.264424 16.920781 0.417071 166.439964 85.511143 168.038405 -10.303495 3.408686 0.996972 -9.904704 5.906125 -0.242346 -2.047929 0.795053 23.574609 1.392969 6.397905 -15.057030 -1.153199 0.000000 -43.715400 10.328352 0.532615 -0.615365 0.343674 -13.529812 -26.418643 1.096642 -1.868482 36.413995 -3.465646 -14.521768 -16.736867 1.865000 0.000001 -31.023600
10.512375 17.041292 0.455064 169.377497 85.232405 170.635253 -10.360521 3.661839 1.066865 -9.031440 6.268213 1.707828 -1.914008 0.804984 21.213373 1.197635 6.143410 -11.390374 -0.611000 -0.000000 -49.112800 10.233673 0.510649 -0.588353 1.134172 -13.767836 -25.220403 1.187216 -1.509139 32.788446 -3.616369 -15.103093 -16.368573 1.795299 0.000000 -31.545100
10.760003 17.161666 0.496232 171.701053 84.925323 172.635330 -10.431810 3.923758 1.127108 -8.159973 6.666277 3.373939 -1.764469 0.858772 19.224666 1.027993 5.895015 -7.478396 -0.100000 0.000000 -54.527700 10.139539 0.471009 -0.529820 1.905549 -13.904376 -23.927717 1.254001 -1.131528 29.039378 -3.775220 -15.763430 -15.904684 1.690000 0.000000 -32.039300
11.006925 17.280483 0.540991 173.387784 84.602591 174.026987 -10.511559 4.187045 1.170856 -7.302259 7.131426 4.707675 -1.606194 0.950678 17.684115 0.891747 5.621623 -3.413599 0.354601 0.000000 -59.551800 10.053077 0.414384 -0.428195 2.638681 -13.897903 -22.570010 1.294124 -0.741667 25.207369 -3.935800 -16.490295 -15.315718 1.532700 -0.000000 -32.468000
11.252721 17.396191 0.589501 174.461537 84.279457 174.840194 -10.594639 4.443146 1.192372 -6.469242 7.687863 5.686088 -1.444288 1.071496 16.637053 0.796024 5.305132 0.704607 0.726300 -0.000000 -63.814600 9.981339 0.344233 -0.277930 3.313832 -13.720162 -21.180214 1.306253 -0.348193 21.356776 -4.091512 -17.269795 -14.586460 1.310100 -0.000000 -32.795600
11.496925 17.507262 0.641617 174.974966 83.971011 175.128747 -10.676676 4.683282 1.189126 -5.674125 8.343663 6.315287 -1.281835 1.209337 16.090976 0.747397 4.954560 4.774171 0.997100 0.000000 -67.023200 9.929704 0.265753 -0.081249 3.914782 -13.367034 -19.799227 1.292208 0.036955 17.582316 -4.234953 -18.078147 -13.724496 1.016599 -0.000000 -32.994600
